# xmcd
#
# Track frame offsets:
#	150
#	18835
#	30730
#	42597
#	54580
#	68910
#	81847
#	94597
#	106620
#	119140
#
# Disc length: 1913 seconds
#
# Revision: 1
# Processed by: cddbd v1.4PL0 Copyright (c) Steve Scherf et al.
# Submitted via: audiograbber 1.81.01
#
DISCID=7e07770a
DTITLE=Various and Assorted - Blues That Gave America Soul
DYEAR=1998
DGENRE=Blues
TTITLE0=Bobby Bland - They Call It Stormy Monday
TTITLE1=Johnny Ace - Saving My Love For You
TTITLE2=Little Junior Parker - Driving Wheel
TTITLE3=Memphis Slim - Living Like A King
TTITLE4=Lowell Fulson - Reconsider Baby
TTITLE5=T-Bone Walker - Confusion Blues
TTITLE6=Roscoe Gordon - Keep On Doggin'
TTITLE7=Arthur Prysock - There Goes The Mailman
TTITLE8=Jimmy McCracklin - The Walk
TTITLE9=B.B. King - The Thrill Is Gone
EXTD=Created by MCA Records, Inc in 1998
EXTT0=4:07
EXTT1=2:38
EXTT2=2:34
EXTT3=2:37
EXTT4=3:08
EXTT5=2:50
EXTT6=2:47
EXTT7=2:41
EXTT8=2:43
EXTT9=5:26
PLAYORDER=
